<svg width="192" height="192" viewBox="0 0 192 192" fill="none" xmlns="http://www.w3.org/2000/svg">
<rect width="192" height="192" fill="#FFFCFA"/>
<path d="M0.518425 0.518415C0.850637 0.186465 1.30103 0 1.77066 0C2.24029 0 2.69073 0.186465 3.02294 0.518415L32.0171 29.5126L61.0113 0.518415C61.3465 0.201559 61.792 0.027919 62.2532 0.0344031C62.7144 0.0408872 63.1549 0.226984 63.4811 0.553138C63.8072 0.879292 63.9933 1.31979 63.9998 1.78099C64.0063 2.2422 63.8327 2.68775 63.5158 3.02294L34.5216 32.0171L63.5158 61.0113C63.8327 61.3465 64.0063 61.792 63.9998 62.2532C63.9933 62.7145 63.8072 63.1549 63.4811 63.4811C63.1549 63.8073 62.7144 63.9933 62.2532 63.9998C61.792 64.0063 61.3465 63.8327 61.0113 63.5158L32.0171 34.5216L3.02294 63.5158C2.68774 63.8327 2.24217 64.0063 1.78097 63.9998C1.31976 63.9933 0.879279 63.8073 0.553125 63.4811C0.226971 63.1549 0.0408808 62.7145 0.0343967 62.2532C0.0279126 61.792 0.201569 61.3465 0.518425 61.0113L29.5126 32.0171L0.518425 3.02294C0.186475 2.69073 0 2.24031 0 1.77068C0 1.30105 0.186475 0.850627 0.518425 0.518415Z" transform="translate(64 64)" fill="#A6B4C2"/>
</svg>
